<svg width="25" height="24" viewBox="0 0 25 24" fill="none" xmlns="http://www.w3.org/2000/svg">
<path d="M8.72267 4.98554C8.72267 3.04789 10.2599 1.47712 12.1561 1.47712C14.0523 1.47712 15.5895 3.04789 15.5895 4.98554C15.5895 6.9232 14.0523 8.49394 12.1561 8.49394C10.2599 8.49394 8.72267 6.9232 8.72267 4.98554Z" fill="#0000C9"/>
<path fill-rule="evenodd" clip-rule="evenodd" d="M12.2049 0.686183C9.94012 0.686183 8.10406 2.52947 8.10406 4.80328C8.10406 6.3956 6.81832 7.68646 5.23228 7.68646H4.7937C2.52368 7.68646 0.683475 9.53394 0.683475 11.8129C0.683475 14.0919 2.52368 15.9394 4.7937 15.9394H5.03859C6.7316 15.9394 8.10406 17.3173 8.10406 19.0171C8.10406 21.2909 9.94012 23.1342 12.2049 23.1342C14.4698 23.1342 16.3058 21.2909 16.3058 19.0171C16.3058 17.3173 17.6783 15.9394 19.3713 15.9394H19.5185C21.7885 15.9394 23.6287 14.0919 23.6287 11.8129C23.6287 9.53394 21.7885 7.68646 19.5185 7.68646H19.1776C17.5916 7.68646 16.3058 6.3956 16.3058 4.80328C16.3058 2.52947 14.4698 0.686183 12.2049 0.686183ZM7.42061 4.80328C7.42061 2.1505 9.56261 0 12.2049 0C14.8473 0 16.9893 2.1505 16.9893 4.80328C16.9893 6.01663 17.969 7.00029 19.1776 7.00029H19.5185C22.166 7.00029 24.3122 9.15497 24.3122 11.8129C24.3122 14.4709 22.166 16.6256 19.5185 16.6256H19.3713C18.0557 16.6256 16.9893 17.6963 16.9893 19.0171C16.9893 21.6698 14.8473 23.8203 12.2049 23.8203C9.56261 23.8203 7.42061 21.6698 7.42061 19.0171C7.42061 17.6963 6.35415 16.6256 5.03859 16.6256H4.7937C2.14621 16.6256 0 14.4709 0 11.8129C2.08735e-07 9.15497 2.14622 7.00029 4.7937 7.00029H5.23228C6.44088 7.00029 7.42061 6.01663 7.42061 4.80328Z" fill="#0000C9"/>
<path d="M22.9435 11.7943C22.9435 13.6527 21.468 15.0835 19.5004 15.1337C17.6394 15.181 16.1248 16.3782 15.7245 18.1543C15.6263 18.5902 15.6477 19.0509 15.578 19.4947C15.3044 21.2393 13.7725 22.4335 11.9684 22.3246C10.2577 22.2213 8.86918 20.8103 8.83167 19.0831C8.80439 17.8307 8.35297 16.7939 7.37013 15.9953C6.6802 15.4335 5.81165 15.1277 4.9159 15.1311C3.21761 15.1059 1.86886 13.9934 1.555 12.3759C1.19586 10.5237 2.52699 8.7296 4.45512 8.4668C6.33491 8.21109 8.09723 9.59337 8.28279 11.4454C8.34126 12.0258 8.38152 12.6303 8.57977 13.1705C8.89249 14.0015 9.49071 14.6989 10.2709 15.1421C11.0511 15.5853 11.9644 15.7465 12.8526 15.5977C14.7907 15.261 16.1024 13.7391 16.1564 11.7644C16.2017 10.112 17.3231 8.79069 18.9267 8.50046C19.418 8.40926 19.9237 8.42611 20.4075 8.54977C20.8914 8.67343 21.3414 8.9008 21.7254 9.21566C22.1094 9.53051 22.4177 9.92497 22.6283 10.3709C22.8389 10.8167 22.9465 11.3027 22.9435 11.7943Z" fill="#0000C9"/>
</svg>
