<svg width="85" height="24" viewBox="0 0 85 24" fill="none" xmlns="http://www.w3.org/2000/svg">
<g clip-path="url(#clip0_12_140)">
<path d="M8.72267 4.98554C8.72267 3.04789 10.2599 1.47712 12.1561 1.47712C14.0523 1.47712 15.5895 3.04789 15.5895 4.98554C15.5895 6.9232 14.0523 8.49394 12.1561 8.49394C10.2599 8.49394 8.72267 6.9232 8.72267 4.98554Z" fill="#0000C9"/>
<path fill-rule="evenodd" clip-rule="evenodd" d="M12.2049 0.686183C9.94012 0.686183 8.10406 2.52947 8.10406 4.80328C8.10406 6.3956 6.81832 7.68646 5.23228 7.68646H4.7937C2.52368 7.68646 0.683475 9.53394 0.683475 11.8129C0.683475 14.0919 2.52368 15.9394 4.7937 15.9394H5.03859C6.7316 15.9394 8.10406 17.3173 8.10406 19.0171C8.10406 21.2909 9.94012 23.1342 12.2049 23.1342C14.4698 23.1342 16.3058 21.2909 16.3058 19.0171C16.3058 17.3173 17.6783 15.9394 19.3713 15.9394H19.5185C21.7885 15.9394 23.6287 14.0919 23.6287 11.8129C23.6287 9.53394 21.7885 7.68646 19.5185 7.68646H19.1776C17.5916 7.68646 16.3058 6.3956 16.3058 4.80328C16.3058 2.52947 14.4698 0.686183 12.2049 0.686183ZM7.42061 4.80328C7.42061 2.1505 9.56261 0 12.2049 0C14.8473 0 16.9893 2.1505 16.9893 4.80328C16.9893 6.01663 17.969 7.00029 19.1776 7.00029H19.5185C22.166 7.00029 24.3122 9.15497 24.3122 11.8129C24.3122 14.4709 22.166 16.6256 19.5185 16.6256H19.3713C18.0557 16.6256 16.9893 17.6963 16.9893 19.0171C16.9893 21.6698 14.8473 23.8203 12.2049 23.8203C9.56261 23.8203 7.42061 21.6698 7.42061 19.0171C7.42061 17.6963 6.35415 16.6256 5.03859 16.6256H4.7937C2.14621 16.6256 0 14.4709 0 11.8129C2.08735e-07 9.15497 2.14622 7.00029 4.7937 7.00029H5.23228C6.44088 7.00029 7.42061 6.01663 7.42061 4.80328Z" fill="#0000C9"/>
<path d="M22.9435 11.7943C22.9435 13.6527 21.468 15.0835 19.5004 15.1337C17.6394 15.181 16.1248 16.3782 15.7245 18.1543C15.6263 18.5902 15.6477 19.0509 15.578 19.4947C15.3044 21.2393 13.7725 22.4335 11.9684 22.3246C10.2577 22.2213 8.86918 20.8103 8.83167 19.0831C8.80439 17.8307 8.35297 16.7939 7.37013 15.9953C6.6802 15.4335 5.81165 15.1277 4.9159 15.1311C3.21761 15.1059 1.86886 13.9934 1.555 12.3759C1.19586 10.5237 2.52699 8.7296 4.45512 8.4668C6.33491 8.21109 8.09723 9.59337 8.28279 11.4454C8.34126 12.0258 8.38152 12.6303 8.57977 13.1705C8.89249 14.0015 9.49071 14.6989 10.2709 15.1421C11.0511 15.5853 11.9644 15.7465 12.8526 15.5977C14.7907 15.261 16.1024 13.7391 16.1564 11.7644C16.2017 10.112 17.3231 8.79069 18.9267 8.50046C19.418 8.40926 19.9237 8.42611 20.4075 8.54977C20.8914 8.67343 21.3414 8.9008 21.7254 9.21566C22.1094 9.53051 22.4177 9.92497 22.6283 10.3709C22.8389 10.8167 22.9465 11.3027 22.9435 11.7943Z" fill="#0000C9"/>
<path d="M36.9765 15.2776L39.9174 6.86486H42.1985L38.2396 17.1887H35.6758L31.7358 6.86486H34.0357L36.9765 15.2776Z" fill="#0000C9"/>
<path d="M56.3971 6.69623C57.214 6.69623 57.943 6.86486 58.584 7.20211C59.2375 7.53937 59.7464 8.03903 60.1111 8.70103C60.4878 9.36309 60.6762 10.1625 60.6762 11.0993V17.1887H58.5461V11.4178C58.5461 10.4935 58.3134 9.78777 57.8488 9.30063C57.3837 8.80097 56.749 8.55114 55.9446 8.55114C55.1403 8.55114 54.4994 8.80097 54.0218 9.30063C53.5568 9.78777 53.3243 10.4935 53.3243 11.4178V17.1887H51.194V11.4178C51.194 10.4935 50.9615 9.78777 50.4965 9.30063C50.0315 8.80097 49.3968 8.55114 48.5925 8.55114C47.7882 8.55114 47.1472 8.80097 46.6696 9.30063C46.2046 9.78777 45.9721 10.4935 45.9721 11.4178V17.1887H43.823V6.86486H45.9721V8.04526C46.324 7.62057 46.7702 7.28954 47.3105 7.05223C47.851 6.81491 48.4291 6.69623 49.0449 6.69623C49.8744 6.69623 50.6159 6.87114 51.2694 7.22086C51.9229 7.57063 52.4257 8.07651 52.7776 8.73851C53.0918 8.114 53.5819 7.62057 54.248 7.25834C54.9141 6.8836 55.6305 6.69623 56.3971 6.69623Z" fill="#0000C9"/>
<path d="M72.9312 11.7738C72.9312 12.1611 72.9059 12.5108 72.8559 12.8231H64.9193C64.9819 13.6475 65.2898 14.3095 65.8428 14.8092C66.3959 15.3088 67.0748 15.5586 67.8788 15.5586C69.0355 15.5586 69.8522 15.0777 70.33 14.1159H72.6486C72.3344 15.0653 71.7624 15.8459 70.9331 16.458C70.1158 17.0575 69.0981 17.3574 67.8788 17.3574C66.8864 17.3574 65.9939 17.1387 65.2019 16.7015C64.4231 16.2519 63.8069 15.6273 63.3549 14.8279C62.9149 14.016 62.695 13.0791 62.695 12.0174C62.695 10.9557 62.9086 10.0251 63.3359 9.22566C63.7759 8.41377 64.3852 7.7892 65.1646 7.352C65.956 6.91486 66.8611 6.69623 67.8788 6.69623C68.8592 6.69623 69.7327 6.90857 70.4995 7.33331C71.2662 7.758 71.8629 8.35754 72.2902 9.132C72.7175 9.89394 72.9312 10.7746 72.9312 11.7738ZM70.6878 11.0993C70.6752 10.3124 70.3926 9.6816 69.8396 9.20691C69.2865 8.73229 68.6019 8.49497 67.7846 8.49497C67.0432 8.49497 66.4086 8.73229 65.8808 9.20691C65.3529 9.66909 65.0388 10.2999 64.9383 11.0993H70.6878Z" fill="#0000C9"/>
<path d="M74.3296 11.9799C74.3296 10.9432 74.5433 10.0251 74.9706 9.22566C75.4105 8.42623 76.0015 7.80794 76.7429 7.37074C77.497 6.92108 78.3327 6.69623 79.2504 6.69623C79.9287 6.69623 80.5949 6.84611 81.2485 7.14594C81.9147 7.4332 82.4425 7.82046 82.8319 8.3076V3.32366H85V17.1887H82.8319V15.6336C82.4799 16.1332 81.99 16.5454 81.3616 16.8702C80.746 17.195 80.0355 17.3574 79.2315 17.3574C78.3263 17.3574 77.497 17.1325 76.7429 16.6829C76.0015 16.2207 75.4105 15.5836 74.9706 14.7717C74.5433 13.9473 74.3296 13.0167 74.3296 11.9799ZM82.8319 12.0174C82.8319 11.3054 82.6814 10.6871 82.3793 10.1625C82.0905 9.63788 81.7074 9.23817 81.2295 8.96337C80.7523 8.68857 80.2365 8.55114 79.6835 8.55114C79.131 8.55114 78.6152 8.68857 78.138 8.96337C77.6601 9.22566 77.2707 9.61914 76.9692 10.1438C76.6798 10.6559 76.5356 11.2679 76.5356 11.9799C76.5356 12.6919 76.6798 13.3165 76.9692 13.8536C77.2707 14.3907 77.6601 14.8029 78.138 15.0902C78.6279 15.365 79.1436 15.5024 79.6835 15.5024C80.2365 15.5024 80.7523 15.365 81.2295 15.0902C81.7074 14.8154 82.0905 14.4157 82.3793 13.8911C82.6814 13.3539 82.8319 12.7294 82.8319 12.0174Z" fill="#0000C9"/>
</g>
<defs>
<clipPath id="clip0_12_140">
<rect width="85" height="24" fill="white"/>
</clipPath>
</defs>
</svg>
